<svg xmlns="http://www.w3.org/2000/svg" height="800" width="1200" viewBox="-75.00012 -19.102625 650.00104 114.61575"><defs><clipPath clipPathUnits="userSpaceOnUse" id="a"><path d="M283.61 700.16h166.16v-25.242H283.61z"/></clipPath><clipPath clipPathUnits="userSpaceOnUse" id="b"><path d="M283.61 700.16h166.16v-25.242H283.61z"/></clipPath><clipPath clipPathUnits="userSpaceOnUse" id="c"><path d="M283.61 700.16h166.16v-25.242H283.61z"/></clipPath></defs><g fill="#0056A8"><g clip-path="url(#a)" transform="matrix(3.041 0 0 -3.041 -862.4533 2128.8362)"><path d="M446.22 677.78c-1.324-1.392-2.825-2.222-4.708-2.601-1.271-.257-2.384-.311-3.676-.177-1.712.176-3.125.726-4.503 1.757-1.127.84-1.934 1.749-2.639 2.967-.544.943-.861 1.825-1.037 2.899-.247 1.49-.182 2.801.21 4.258.896 3.314 3.389 5.663 6.749 6.362 1.919.399 3.625.358 5.522-.132 1.351-.349 2.424-.937 3.446-1.888.645-.598 1.103-1.199 1.509-1.977.481-.92.675-1.814.62-2.85h-5.993c-.13.803-.515 1.443-1.162 1.935-.838.639-1.919.69-2.815.136-.612-.381-1.014-.899-1.231-1.586-.516-1.637-.539-3.16-.079-4.813.196-.695.525-1.24 1.051-1.736.599-.572 1.346-.807 2.166-.686.508.074.921.296 1.263.681.359.397.564.823.658 1.35.066.371.103.685.123 1.061h6.318c.126-1.905-.478-3.578-1.792-4.96"/></g><path d="M421.0467 14.0862h19.9313V.0062h-19.9313zm0 60.5375h19.9313v-53.3h-19.9313zm-41.2875-47.675c2.6213-2.293 5.121-3.9107 8.2837-5.3734 5.1484-2.3781 10.2968-2.7643 15.7432-1.1739 5.8418 1.7121 10.0505 5.8205 11.8934 11.6258.885 2.7886 1.268 5.264 1.268 8.1894v34.3998h-21.1683V43.6803c0-1.034-.1247-1.9098-.4349-2.9011-.5413-1.776-1.7151-3.0836-3.4302-3.8074-3.7526-1.5934-8.0191-.1824-10.0779 3.333-.8606 1.4657-1.2529 2.9102-1.2529 4.6132v29.6984H360.081V21.3137h19.2343l.444 5.635m-235.7376 0c2.6213-2.293 5.121-3.9107 8.2776-5.3734 5.1515-2.3781 10.303-2.7643 15.7463-1.1739 5.8448 1.7121 10.0535 5.8205 11.8964 11.6258.885 2.7886 1.268 5.264 1.268 8.1894v34.3998h-21.1683V43.6803c0-1.034-.1308-1.9098-.4318-2.9011-.5474-1.776-1.7212-3.0836-3.4394-3.8074-3.7496-1.5934-8.016-.1824-10.0718 3.333-.8636 1.4657-1.256 2.9102-1.256 4.6132v29.6984h-20.4993V21.3137h19.2313l.447 5.635"/><g clip-path="url(#b)" transform="matrix(3.041 0 0 -3.041 -862.4533 2128.8362)"><path d="M372.28 681.95c.502-.085.922-.19 1.404-.351.403-.132.68-.444.768-.857.096-.451-.031-.879-.355-1.204-.329-.333-.704-.525-1.166-.597-.618-.099-1.166-.048-1.755.166-.285.102-.511.231-.745.424-.301.254-.495.545-.612.921-.098.319-.137.601-.131.935h-6.419v-.374c0-.604.094-1.116.306-1.681.322-.85.763-1.507 1.429-2.127.869-.813 1.776-1.32 2.919-1.647 2.373-.676 4.51-.81 6.949-.436 1.144.175 2.088.483 3.117 1.016.453.235.816.478 1.207.806 1.734 1.456 2.377 3.678 1.684 5.833-.262.812-.676 1.438-1.321 1.998-.884.766-1.779 1.254-2.903 1.582-.246.071-.456.131-.704.199-1.375.382-2.556.634-3.968.844-.378.056-.696.117-1.069.204-.172.041-.315.089-.475.162-.395.178-.57.643-.392 1.037.01.021.019.04.03.06.212.379.526.626.94.747.733.212 1.408.194 2.127-.051.69-.235 1.123-.868 1.093-1.597h6.185c-.006.76-.122 1.402-.378 2.116-.262.724-.66 1.275-1.265 1.752-.526.418-1.025.702-1.652.945-.61.237-1.148.385-1.793.498-1.533.264-2.852.341-4.404.249-.887-.051-1.635-.161-2.503-.364-1.168-.275-2.109-.726-3.053-1.466-.802-.629-1.327-1.364-1.663-2.326-.153-.436-.226-.823-.246-1.282-.035-.769.076-1.424.361-2.139.51-1.28 1.416-2.187 2.698-2.698.649-.259 1.218-.429 1.903-.569 1.35-.279 2.493-.496 3.852-.728"/></g><path d="M36.3217 51.6362H22.6433V34.1474h8.8888c1.6878 0 3.117-.0395 4.8048-.1338 2.3385-.1277 4.2817-1.1738 5.6745-3.0562.739-1.0005 1.1556-2.0101 1.332-3.2447.146-1.04.1672-1.928.0638-2.968-.38-3.8925-3.6036-6.8119-7.5112-6.8119H22.6433v56.6873H0V0h37.012c1.4719 0 2.7156.0273 4.1844.1094 9.8194.526 17.9085 5.9786 22.0686 14.8887 2.1652 4.6376 2.901 9.0957 2.3446 14.1863-1.1739 10.7165-8.67 19.0519-19.2009 21.36-3.491.7663-6.5138 1.0917-10.087 1.0917m297.2625-31.3374c-2.1074-.3345-3.9077-.4714-6.0394-.4714-2.1348 0-3.932.1369-6.0425.4714-6.1185.958-11.0753 3.418-15.5425 7.7059-4.7805 4.595-7.3988 10.0323-7.9979 16.6343-.3649 4.0536-.0517 7.5477 1.04 11.4676 1.6726 6.015 4.814 10.6617 9.7708 14.4569 3.263 2.5088 6.5077 4.011 10.528 4.8869 2.8554.6264 5.3217.885 8.244.885 2.9194 0 5.3887-.2586 8.2473-.885 4.0171-.8758 7.2619-2.378 10.5249-4.887l-11.4524-12.4802c-1.8216 4.0446-6.5656 5.8479-10.6131 4.0263-1.8642-.8393-3.187-2.1591-4.0294-4.0263-.7754-1.7242-1.2285-3.269-1.5083-5.1423-.5656-3.7435-.5018-6.9943.2311-10.7134.374-1.931 1.0188-3.5063 2.0953-5.1515 2.3537-3.5914 7.1707-4.595 10.7682-2.2443.9396.6174 1.6269 1.3046 2.2381 2.2443 1.0796 1.6452 1.7243 3.2204 2.0983 5.1515.7238 3.719.7968 6.97.2311 10.7134-.2828 1.8733-.7359 3.418-1.5113 5.1423l11.4524 12.4803c4.9598-3.7952 8.1012-8.4418 9.7707-14.457 1.0917-3.9198 1.4019-7.4139 1.04-11.4675-.599-6.602-3.2113-12.0394-7.9948-16.6343-4.4702-4.2939-9.424-6.748-15.5486-7.7059"/><g clip-path="url(#c)" transform="matrix(3.041 0 0 -3.041 -862.4533 2128.8362)"><path d="M362.55 676.88c-.098 1.444-.153 2.667-.182 4.116-.038 1.904-.061 3.51-.074 5.413-.008 1.027-.121 1.894-.378 2.888-.337 1.303-1.1 2.293-2.275 2.951-.71.397-1.361.641-2.155.813-2.528.541-4.759.586-7.306.144-.716-.124-1.308-.296-1.98-.574-1.552-.642-2.621-1.812-3.119-3.415-.191-.613-.242-1.169-.169-1.808a.9483.9483 0 01.096-.323l5.898-.144c-.015.376.034.694.161 1.047.193.538.573.92 1.111 1.116.791.291 1.553.302 2.355.04.527-.173.901-.553 1.065-1.082.103-.331.052-.657-.148-.94-.174-.25-.389-.418-.674-.527a4.8882 4.8882 0 00-.506-.164c-.82-.221-1.52-.373-2.357-.512a47.351 47.351 0 01-1.878-.346c-.893-.177-1.639-.373-2.504-.653-.792-.256-1.416-.62-2.028-1.183-.796-.728-1.251-1.591-1.403-2.662-.1-.714-.077-1.336.081-2.039.413-1.828 1.682-3.18 3.483-3.704 1.996-.579 3.869-.484 5.796.294.938.377 1.652.9 2.297 1.678l-.416 3.013c-.297-.46-.666-.774-1.165-.994-.468-.207-.891-.316-1.4-.368-.424-.042-.792-.011-1.203.104-.334.092-.595.248-.832.5-.2.216-.319.448-.38.736-.093.442.052.867.397 1.16.231.197.457.329.74.433.685.252 1.27.441 1.971.64.848.239 1.55.498 2.35.866.079-.641.075-1.19-.014-1.828-.065-.468-.207-.853-.464-1.249l.416-3.013c.129-.428.248-.786.394-1.205.083-.235.191-.417.355-.6h6.497c-.277.435-.418.865-.453 1.381m-39.35 0c-.098 1.444-.153 2.667-.182 4.116-.039 1.904-.061 3.51-.074 5.413-.007 1.027-.12 1.894-.378 2.888-.337 1.303-1.099 2.293-2.275 2.951-.71.397-1.361.641-2.155.813-2.528.541-4.759.586-7.307.144-.714-.124-1.308-.296-1.979-.574-1.552-.642-2.621-1.812-3.119-3.415-.19-.613-.242-1.169-.168-1.808a.9249.9249 0 01.095-.323l5.898-.144c-.014.376.034.694.161 1.047.193.538.573.92 1.111 1.116.792.291 1.553.302 2.354.04.528-.173.903-.553 1.068-1.082.101-.331.05-.657-.15-.94-.175-.25-.39-.418-.674-.527a4.8286 4.8286 0 00-.507-.164c-.819-.221-1.52-.373-2.356-.512-.662-.109-1.221-.212-1.879-.346-.892-.177-1.637-.373-2.504-.653-.79-.256-1.414-.62-2.027-1.183-.796-.728-1.25-1.591-1.403-2.662-.101-.714-.077-1.336.082-2.039.411-1.828 1.682-3.18 3.481-3.704 1.998-.579 3.869-.484 5.797.294.937.377 1.653.9 2.298 1.678l-.416 3.013c-.297-.46-.667-.774-1.167-.994-.467-.207-.891-.316-1.398-.368-.426-.042-.792-.011-1.204.104-.334.092-.595.248-.831.5-.201.216-.32.448-.381.736-.092.442.052.867.397 1.16.23.197.456.329.74.433.685.252 1.271.441 1.972.64.848.239 1.549.498 2.35.866.078-.641.074-1.19-.015-1.828-.065-.468-.208-.853-.463-1.249l.416-3.013c.128-.428.247-.786.394-1.205.082-.235.19-.417.354-.6h6.497c-.277.435-.417.865-.453 1.381"/></g></g></svg>